<?xml version="1.0" encoding="UTF-8" standalone="no"?>
<svg xmlns="http://www.w3.org/2000/svg" viewBox="0 0 21.601 21.601" version="1.1">
<path fill="white" opacity="0.75" d="m 5.063,0 h 11.476 c 2.784,0 5.062,2.278 5.062,5.063 v 11.476 c 0,2.784 -2.277,5.062 -5.062,5.062 H 5.063 C 2.279,21.601 0,19.324 0,16.539 V 5.062 C 10e-4,2.278 2.279,0 5.063,0 Z M 15.34,10.8 v -0.066 0.008 -0.046 0.007 -0.035 0.007 l -10e-4,-0.031 10e-4,0.007 -10e-4,-0.026 v 0.007 -0.022 0.008 -0.023 0.007 -0.023 0.008 -0.023 0.007 l -0.001,-0.02 0.001,0.008 -0.001,-0.019 v 0.007 -0.019 0.007 -0.027 0.007 l -10e-4,-0.019 10e-4,0.007 -10e-4,-0.035 v 0.008 l -0.003,-0.124 v 0.008 l -10e-4,-0.027 v 0.007 -0.027 0.008 l -10e-4,-0.027 v 0.007 -0.02 0.008 l -0.001,-0.02 0.001,0.008 -0.001,-0.023 v 0.008 l -10e-4,-0.02 10e-4,0.008 -10e-4,-0.023 v 0.008 l -10e-4,-0.023 v 0.008 -0.023 0.008 l -0.001,-0.027 v 0.008 l -10e-4,-0.031 v 0.008 l -0.002,-0.039 0.001,0.008 -0.002,-0.05 V 10.09 L 15.318,9.979 15.316,9.932 V 9.94 L 15.314,9.905 15.315,9.912 15.313,9.881 15.314,9.889 15.311,9.862 15.312,9.869 15.311,9.846 15.31,9.831 V 9.838 L 15.309,9.815 15.31,9.823 15.308,9.8 V 9.807 L 15.307,9.788 15.308,9.795 15.306,9.776 v 0 L 14.367,9.838 14.368,9.85 V 9.842 l 10e-4,0.019 V 9.854 L 14.37,9.873 14.369,9.866 14.371,9.888 14.37,9.881 14.372,9.904 14.371,9.897 14.373,9.919 14.372,9.912 14.374,9.934 14.373,9.927 14.375,9.954 14.374,9.946 14.376,9.977 14.375,9.97 l 0.003,0.034 -10e-4,-0.007 0.003,0.054 v -0.008 l 0.003,0.073 V 10.11 l 0.002,0.05 v -0.007 l 10e-4,0.039 v -0.008 l 0.002,0.031 -10e-4,-0.008 10e-4,0.027 v -0.007 l 10e-4,0.023 v -0.008 0.023 -0.008 l 0.001,0.023 v -0.008 0.02 -0.007 l 10e-4,0.023 V 10.3 10.319 10.312 l 10e-4,0.019 v -0.007 0.02 -0.008 l 0.001,0.027 v -0.008 l 10e-4,0.027 -10e-4,-0.008 10e-4,0.027 v -0.008 l 0.002,0.093 v -0.007 l 10e-4,0.035 -10e-4,-0.008 10e-4,0.02 v -0.008 0.027 -0.007 l 10e-4,0.019 -10e-4,-0.007 10e-4,0.019 v -0.007 0.019 -0.007 0.019 -0.008 0.023 -0.007 0.023 -0.008 0.023 -0.007 l 10e-4,0.023 -10e-4,-0.007 10e-4,0.027 v -0.007 0.03 -0.007 0.035 -0.008 L 14.4,10.764 14.399,10.757 V 10.8 c 0,0.716 -0.051,1.464 -0.166,2.205 0.344,-0.096 0.679,-0.21 0.998,-0.344 0.074,-0.618 0.109,-1.242 0.109,-1.861 z M 5.681,14.417 4.717,11.865 4.208,12.415 C 3.871,12.099 3.57,11.701 3.446,11.253 v 0 L 3.411,11.1 v 0.002 C 3.394,10.999 3.384,10.906 3.384,10.8 3.39,10.11 3.796,9.549 4.294,9.106 4.65,8.795 5.063,8.529 5.509,8.303 5.569,7.922 5.643,7.543 5.732,7.168 4.706,7.583 3.79,8.161 3.148,8.943 2.712,9.491 2.447,10.092 2.442,10.8 c 0,0.915 0.479,1.695 1.128,2.307 l -0.509,0.55 z M 8.943,6.375 c -0.135,0.32 -0.251,0.654 -0.349,0.997 0.766,-0.119 1.522,-0.17 2.207,-0.17 1.806,0 3.812,0.326 5.425,1.172 0.901,0.479 1.982,1.299 1.992,2.426 -0.006,0.69 -0.411,1.251 -0.909,1.693 -1.633,1.424 -4.41,1.904 -6.508,1.904 -0.646,0 -1.326,-0.038 -1.96,-0.132 l -0.127,0.934 c 0.678,0.099 1.399,0.14 2.088,0.14 2.479,0 5.988,-0.653 7.653,-2.683 0.436,-0.548 0.701,-1.148 0.706,-1.856 C 19.147,8.624 16.658,7.349 14.862,6.819 13.55,6.432 12.166,6.26 10.801,6.26 10.225,6.26 9.594,6.296 8.943,6.375 Z m 4.353,9.714 -0.069,0.136 c -0.479,0.901 -1.3,1.982 -2.426,1.992 C 10.111,18.211 9.55,17.806 9.107,17.308 7.684,15.675 7.203,12.898 7.203,10.8 c 0,-1.806 0.326,-3.812 1.172,-5.425 0.479,-0.901 1.3,-1.983 2.426,-1.992 0.792,0 1.477,0.587 1.927,1.196 L 12.124,5.026 14.559,6.259 14.085,3.572 13.483,4.018 C 12.834,3.157 11.927,2.441 10.801,2.441 8.625,2.454 7.35,4.944 6.82,6.739 6.433,8.051 6.261,9.434 6.261,10.8 c 0,2.479 0.653,5.988 2.683,7.653 0.548,0.436 1.148,0.701 1.857,0.706 1.787,-0.011 2.967,-1.693 3.625,-3.289 -0.376,0.088 -0.754,0.161 -1.13,0.219 z" /></svg>